<svg width="834" height="834" viewBox="0 0 834 834" fill="none" xmlns="http://www.w3.org/2000/svg">
<path d="M0 276.888C0 48.8707 48.8707 0 276.888 0H557.112C785.129 0 834 48.8707 834 276.888V557.112C834 785.129 785.129 834 557.112 834H276.888C48.8707 834 0 785.129 0 557.112V276.888Z" fill="#C4C4C4"/>
<path d="M712.681 736.496C731.054 736.496 745.949 721.604 745.949 703.237V131.292C745.949 112.922 731.054 98.0312 712.681 98.0312H120.488C102.114 98.0312 87.2188 112.922 87.2188 131.292V703.237C87.2188 721.604 102.114 736.496 120.488 736.496H712.681Z" stroke="#424242" stroke-width="30"/>
<path d="M158.852 529.645V303.469H225.39L291.929 386.622L358.467 303.469H425.007V529.645H358.467V399.927L291.929 483.078L225.39 399.927V529.645H158.852ZM574.717 529.645L474.909 419.882H541.446V303.469H607.987V419.882H674.524L574.717 529.645Z" fill="#424242"/>
</svg>
