<svg width="256" height="256" viewBox="0 0 256 256" fill="none" xmlns="http://www.w3.org/2000/svg">
<path d="M237.385 246.195C244.182 246.195 249.692 240.686 249.692 233.891V22.3047C249.692 15.5088 244.182 10 237.385 10H18.3077C11.5102 10 6 15.5088 6 22.3047V233.891C6 240.686 11.5102 246.195 18.3077 246.195H237.385Z" stroke="#424242" stroke-width="10"/>
<path d="M32.5 169.672V86H57.1154L81.7308 116.762L106.346 86H130.962V169.672H106.346V121.684L81.7308 152.445L57.1154 121.684V169.672H32.5ZM186.346 169.672L149.423 129.066H174.038V86H198.654V129.066H223.269L186.346 169.672Z" fill="#424242"/>
</svg>
